<?xml version="1.0" encoding="UTF-8"?>
<svg xmlns="http://www.w3.org/2000/svg" width="1200" height="520" viewBox="0 0 1200 520" role="img">
  <title>Выкуп iPhone — иллюстрация</title>
  <defs>
    <linearGradient id="heroBg" x1="0" y1="0" x2="1" y2="1">
      <stop offset="0%" stop-color="#1c1c20"/>
      <stop offset="100%" stop-color="#0a0a0b"/>
    </linearGradient>
    <linearGradient id="phoneGlass" x1="0" y1="0" x2="0" y2="1">
      <stop offset="0%" stop-color="#3d3d48"/>
      <stop offset="100%" stop-color="#1c1c22"/>
    </linearGradient>
  </defs>
  <rect width="1200" height="520" rx="48" fill="url(#heroBg)"/>
  <rect x="56" y="84" width="268" height="352" rx="40" fill="#2a2a32" stroke="rgba(255,255,255,0.14)" stroke-width="2"/>
  <rect x="92" y="118" width="196" height="36" rx="10" fill="rgba(255,255,255,0.07)"/>
  <rect x="120" y="108" width="88" height="88" rx="20" fill="#141418" stroke="rgba(255,255,255,0.08)" stroke-width="1"/>
  <circle cx="164" cy="132" r="10" fill="#2a2a32"/>
  <circle cx="164" cy="164" r="10" fill="#2a2a32"/>
  <circle cx="164" cy="196" r="10" fill="#2a2a32"/>
  <rect x="360" y="64" width="292" height="392" rx="44" fill="url(#phoneGlass)" stroke="rgba(255,255,255,0.15)" stroke-width="2"/>
  <rect x="396" y="104" width="220" height="52" rx="14" fill="rgba(0,0,0,0.45)"/>
  <rect x="474" y="116" width="84" height="28" rx="14" fill="#0a0a0b"/>
  <rect x="396" y="188" width="220" height="200" rx="12" fill="rgba(80,60,120,0.35)"/>
  <rect x="708" y="112" width="208" height="296" rx="36" fill="#2a2a32" stroke="rgba(255,255,255,0.12)" stroke-width="2"/>
  <rect x="736" y="144" width="152" height="152" rx="18" fill="#1a1a20"/>
</svg>
